<svg viewBox="0 0 1920 600" width="1920" height="600" xmlns="http://www.w3.org/2000/svg" xmlns:xlink="http://www.w3.org/1999/xlink" version="1.1"><path d="M0 269L106.7 269.3C213.3 269.7 426.7 270.3 640 259.3C853.3 248.3 1066.7 225.7 1280 226.8C1493.3 228 1706.7 253 1813.3 265.5L1920 278L1920 601L1813.3 601C1706.7 601 1493.3 601 1280 601C1066.7 601 853.3 601 640 601C426.7 601 213.3 601 106.7 601L0 601Z" fill="#c44238"></path><path d="M0 294L106.7 283.5C213.3 273 426.7 252 640 244.5C853.3 237 1066.7 243 1280 257.3C1493.3 271.7 1706.7 294.3 1813.3 305.7L1920 317L1920 601L1813.3 601C1706.7 601 1493.3 601 1280 601C1066.7 601 853.3 601 640 601C426.7 601 213.3 601 106.7 601L0 601Z" fill="#b83d36"></path><path d="M0 295L106.7 303.3C213.3 311.7 426.7 328.3 640 347C853.3 365.7 1066.7 386.3 1280 394.5C1493.3 402.7 1706.7 398.3 1813.3 396.2L1920 394L1920 601L1813.3 601C1706.7 601 1493.3 601 1280 601C1066.7 601 853.3 601 640 601C426.7 601 213.3 601 106.7 601L0 601Z" fill="#ac3833"></path><path d="M0 370L106.7 374.5C213.3 379 426.7 388 640 399.3C853.3 410.7 1066.7 424.3 1280 420.2C1493.3 416 1706.7 394 1813.3 383L1920 372L1920 601L1813.3 601C1706.7 601 1493.3 601 1280 601C1066.7 601 853.3 601 640 601C426.7 601 213.3 601 106.7 601L0 601Z" fill="#a03331"></path><path d="M0 542L106.7 538.8C213.3 535.7 426.7 529.3 640 528.7C853.3 528 1066.7 533 1280 529.2C1493.3 525.3 1706.7 512.7 1813.3 506.3L1920 500L1920 601L1813.3 601C1706.7 601 1493.3 601 1280 601C1066.7 601 853.3 601 640 601C426.7 601 213.3 601 106.7 601L0 601Z" fill="#952e2e"></path></svg>