<svg id="visual" viewBox="0 0 1920 600" width="1920" height="600" xmlns="http://www.w3.org/2000/svg" xmlns:xlink="http://www.w3.org/1999/xlink" version="1.1"><rect x="0" y="0" width="1920" height="600" fill="#ffffff"></rect><path d="M0 314L40 317.3C80 320.7 160 327.3 240 328.7C320 330 400 326 480 315C560 304 640 286 720 280C800 274 880 280 960 278.3C1040 276.7 1120 267.3 1200 283.2C1280 299 1360 340 1440 354.5C1520 369 1600 357 1680 354C1760 351 1840 357 1880 360L1920 363L1920 601L1880 601C1840 601 1760 601 1680 601C1600 601 1520 601 1440 601C1360 601 1280 601 1200 601C1120 601 1040 601 960 601C880 601 800 601 720 601C640 601 560 601 480 601C400 601 320 601 240 601C160 601 80 601 40 601L0 601Z" fill="#c44238"></path><path d="M0 399L40 404.3C80 409.7 160 420.3 240 420C320 419.7 400 408.3 480 389.7C560 371 640 345 720 331.7C800 318.3 880 317.7 960 335C1040 352.3 1120 387.7 1200 400.3C1280 413 1360 403 1440 390.3C1520 377.7 1600 362.3 1680 365.3C1760 368.3 1840 389.7 1880 400.3L1920 411L1920 601L1880 601C1840 601 1760 601 1680 601C1600 601 1520 601 1440 601C1360 601 1280 601 1200 601C1120 601 1040 601 960 601C880 601 800 601 720 601C640 601 560 601 480 601C400 601 320 601 240 601C160 601 80 601 40 601L0 601Z" fill="#b83d36"></path><path d="M0 463L40 458C80 453 160 443 240 438.5C320 434 400 435 480 428.3C560 421.7 640 407.3 720 407.5C800 407.7 880 422.3 960 424.5C1040 426.7 1120 416.3 1200 415.2C1280 414 1360 422 1440 421.8C1520 421.7 1600 413.3 1680 419.7C1760 426 1840 447 1880 457.5L1920 468L1920 601L1880 601C1840 601 1760 601 1680 601C1600 601 1520 601 1440 601C1360 601 1280 601 1200 601C1120 601 1040 601 960 601C880 601 800 601 720 601C640 601 560 601 480 601C400 601 320 601 240 601C160 601 80 601 40 601L0 601Z" fill="#ac3833"></path><path d="M0 493L40 485.3C80 477.7 160 462.3 240 463.8C320 465.3 400 483.7 480 489.8C560 496 640 490 720 488C800 486 880 488 960 486.7C1040 485.3 1120 480.7 1200 475.2C1280 469.7 1360 463.3 1440 465C1520 466.7 1600 476.3 1680 482.2C1760 488 1840 490 1880 491L1920 492L1920 601L1880 601C1840 601 1760 601 1680 601C1600 601 1520 601 1440 601C1360 601 1280 601 1200 601C1120 601 1040 601 960 601C880 601 800 601 720 601C640 601 560 601 480 601C400 601 320 601 240 601C160 601 80 601 40 601L0 601Z" fill="#a03331"></path><path d="M0 508L40 513.2C80 518.3 160 528.7 240 534.8C320 541 400 543 480 542.2C560 541.3 640 537.7 720 540.5C800 543.3 880 552.7 960 553.3C1040 554 1120 546 1200 544C1280 542 1360 546 1440 545.3C1520 544.7 1600 539.3 1680 534.8C1760 530.3 1840 526.7 1880 524.8L1920 523L1920 601L1880 601C1840 601 1760 601 1680 601C1600 601 1520 601 1440 601C1360 601 1280 601 1200 601C1120 601 1040 601 960 601C880 601 800 601 720 601C640 601 560 601 480 601C400 601 320 601 240 601C160 601 80 601 40 601L0 601Z" fill="#952e2e"></path></svg>