<svg id="visual" viewBox="0 0 1920 600" width="1920" height="600" xmlns="http://www.w3.org/2000/svg" xmlns:xlink="http://www.w3.org/1999/xlink" version="1.1"><rect x="0" y="0" width="1920" height="600" fill="#ffffff"></rect><path d="M0 177L35.5 174.8C71 172.7 142 168.3 213.2 173.5C284.3 178.7 355.7 193.3 426.8 213.7C498 234 569 260 640 267C711 274 782 262 853.2 253.5C924.3 245 995.7 240 1066.8 232.8C1138 225.7 1209 216.3 1280 210.2C1351 204 1422 201 1493.2 199.3C1564.3 197.7 1635.7 197.3 1706.8 200.3C1778 203.3 1849 209.7 1884.5 212.8L1920 216L1920 601L1884.5 601C1849 601 1778 601 1706.8 601C1635.7 601 1564.3 601 1493.2 601C1422 601 1351 601 1280 601C1209 601 1138 601 1066.8 601C995.7 601 924.3 601 853.2 601C782 601 711 601 640 601C569 601 498 601 426.8 601C355.7 601 284.3 601 213.2 601C142 601 71 601 35.5 601L0 601Z" fill="#952e2e"></path><path d="M0 354L35.5 356C71 358 142 362 213.2 346.7C284.3 331.3 355.7 296.7 426.8 294.7C498 292.7 569 323.3 640 339.8C711 356.3 782 358.7 853.2 355.2C924.3 351.7 995.7 342.3 1066.8 337C1138 331.7 1209 330.3 1280 325.8C1351 321.3 1422 313.7 1493.2 312.5C1564.3 311.3 1635.7 316.7 1706.8 328.8C1778 341 1849 360 1884.5 369.5L1920 379L1920 601L1884.5 601C1849 601 1778 601 1706.8 601C1635.7 601 1564.3 601 1493.2 601C1422 601 1351 601 1280 601C1209 601 1138 601 1066.8 601C995.7 601 924.3 601 853.2 601C782 601 711 601 640 601C569 601 498 601 426.8 601C355.7 601 284.3 601 213.2 601C142 601 71 601 35.5 601L0 601Z" fill="#a43531"></path><path d="M0 462L35.5 463.3C71 464.7 142 467.3 213.2 451.5C284.3 435.7 355.7 401.3 426.8 388.5C498 375.7 569 384.3 640 390.2C711 396 782 399 853.2 395.7C924.3 392.3 995.7 382.7 1066.8 387.8C1138 393 1209 413 1280 414.5C1351 416 1422 399 1493.2 404.5C1564.3 410 1635.7 438 1706.8 435.8C1778 433.7 1849 401.3 1884.5 385.2L1920 369L1920 601L1884.5 601C1849 601 1778 601 1706.8 601C1635.7 601 1564.3 601 1493.2 601C1422 601 1351 601 1280 601C1209 601 1138 601 1066.8 601C995.7 601 924.3 601 853.2 601C782 601 711 601 640 601C569 601 498 601 426.8 601C355.7 601 284.3 601 213.2 601C142 601 71 601 35.5 601L0 601Z" fill="#b43b35"></path><path d="M0 463L35.5 462C71 461 142 459 213.2 461C284.3 463 355.7 469 426.8 481.2C498 493.3 569 511.7 640 518C711 524.3 782 518.7 853.2 508.2C924.3 497.7 995.7 482.3 1066.8 483.7C1138 485 1209 503 1280 516.2C1351 529.3 1422 537.7 1493.2 538.5C1564.3 539.3 1635.7 532.7 1706.8 534.2C1778 535.7 1849 545.3 1884.5 550.2L1920 555L1920 601L1884.5 601C1849 601 1778 601 1706.8 601C1635.7 601 1564.3 601 1493.2 601C1422 601 1351 601 1280 601C1209 601 1138 601 1066.8 601C995.7 601 924.3 601 853.2 601C782 601 711 601 640 601C569 601 498 601 426.8 601C355.7 601 284.3 601 213.2 601C142 601 71 601 35.5 601L0 601Z" fill="#c44238"></path></svg>