<svg id="visual" viewBox="0 0 1920 600" width="1920" height="600" xmlns="http://www.w3.org/2000/svg" xmlns:xlink="http://www.w3.org/1999/xlink" version="1.1"><rect x="0" y="0" width="1920" height="600" fill="#ffffff" fill-opacity="0"></rect><path d="M0 60L40 66.3C80 72.7 160 85.3 240 92.3C320 99.3 400 100.7 480 98C560 95.3 640 88.7 720 84.7C800 80.7 880 79.3 960 71.3C1040 63.3 1120 48.7 1200 43.3C1280 38 1360 42 1440 49.3C1520 56.7 1600 67.3 1680 67.5C1760 67.7 1840 57.3 1880 52.2L1920 47L1920 0L1880 0C1840 0 1760 0 1680 0C1600 0 1520 0 1440 0C1360 0 1280 0 1200 0C1120 0 1040 0 960 0C880 0 800 0 720 0C640 0 560 0 480 0C400 0 320 0 240 0C160 0 80 0 40 0L0 0Z" fill="#952e2e"></path></svg>