<svg id="visual" viewBox="0 0 1920 600" width="1920" height="600" xmlns="http://www.w3.org/2000/svg" xmlns:xlink="http://www.w3.org/1999/xlink" version="1.1"><rect x="0" y="0" width="1920" height="600" fill="#ffffff"></rect><path d="M0 251L40 248.2C80 245.3 160 239.7 240 245.8C320 252 400 270 480 274.7C560 279.3 640 270.7 720 262.2C800 253.7 880 245.3 960 248.7C1040 252 1120 267 1200 275.3C1280 283.7 1360 285.3 1440 291.5C1520 297.7 1600 308.3 1680 308.3C1760 308.3 1840 297.7 1880 292.3L1920 287L1920 0L1880 0C1840 0 1760 0 1680 0C1600 0 1520 0 1440 0C1360 0 1280 0 1200 0C1120 0 1040 0 960 0C880 0 800 0 720 0C640 0 560 0 480 0C400 0 320 0 240 0C160 0 80 0 40 0L0 0Z" fill="#c44238"></path><path d="M0 264L40 257.7C80 251.3 160 238.7 240 222.3C320 206 400 186 480 187.8C560 189.7 640 213.3 720 224C800 234.7 880 232.3 960 236.5C1040 240.7 1120 251.3 1200 252.2C1280 253 1360 244 1440 234.7C1520 225.3 1600 215.7 1680 216.7C1760 217.7 1840 229.3 1880 235.2L1920 241L1920 0L1880 0C1840 0 1760 0 1680 0C1600 0 1520 0 1440 0C1360 0 1280 0 1200 0C1120 0 1040 0 960 0C880 0 800 0 720 0C640 0 560 0 480 0C400 0 320 0 240 0C160 0 80 0 40 0L0 0Z" fill="#b83d36"></path><path d="M0 188L40 185.5C80 183 160 178 240 180C320 182 400 191 480 187.2C560 183.3 640 166.7 720 157.5C800 148.3 880 146.7 960 143.7C1040 140.7 1120 136.3 1200 139.7C1280 143 1360 154 1440 161.8C1520 169.7 1600 174.3 1680 183.7C1760 193 1840 207 1880 214L1920 221L1920 0L1880 0C1840 0 1760 0 1680 0C1600 0 1520 0 1440 0C1360 0 1280 0 1200 0C1120 0 1040 0 960 0C880 0 800 0 720 0C640 0 560 0 480 0C400 0 320 0 240 0C160 0 80 0 40 0L0 0Z" fill="#ac3833"></path><path d="M0 117L40 120.5C80 124 160 131 240 132.2C320 133.3 400 128.7 480 124.3C560 120 640 116 720 113.2C800 110.3 880 108.7 960 107.7C1040 106.7 1120 106.3 1200 104.8C1280 103.3 1360 100.7 1440 100.7C1520 100.7 1600 103.3 1680 113.8C1760 124.3 1840 142.7 1880 151.8L1920 161L1920 0L1880 0C1840 0 1760 0 1680 0C1600 0 1520 0 1440 0C1360 0 1280 0 1200 0C1120 0 1040 0 960 0C880 0 800 0 720 0C640 0 560 0 480 0C400 0 320 0 240 0C160 0 80 0 40 0L0 0Z" fill="#a03331"></path><path d="M0 60L40 66.3C80 72.7 160 85.3 240 92.3C320 99.3 400 100.7 480 98C560 95.3 640 88.7 720 84.7C800 80.7 880 79.3 960 71.3C1040 63.3 1120 48.7 1200 43.3C1280 38 1360 42 1440 49.3C1520 56.7 1600 67.3 1680 67.5C1760 67.7 1840 57.3 1880 52.2L1920 47L1920 0L1880 0C1840 0 1760 0 1680 0C1600 0 1520 0 1440 0C1360 0 1280 0 1200 0C1120 0 1040 0 960 0C880 0 800 0 720 0C640 0 560 0 480 0C400 0 320 0 240 0C160 0 80 0 40 0L0 0Z" fill="#952e2e"></path></svg>