
        <svg xmlns="http://www.w3.org/2000/svg" xmlns:xlink="http://www.w3.org/1999/xlink" version="1.1" width="3175.438596491228" 
        height="824.561403508772" viewBox="0 0 3175.438596491228 824.561403508772">
			
			<g transform="scale(8.771929824561404) translate(10, 10)">
				<defs id="SvgjsDefs3056"></defs><g id="SvgjsG3057" featureKey="symbolFeature-0" transform="matrix(0.973200135628681,0,0,0.973200135628681,-0.9537360354639302,-6.457441087322926)" fill="#111111"><path xmlns="http://www.w3.org/2000/svg" d="M7,74.4c-0.1,1.6,0.1,3-0.3,4.1c-0.5,1.2-1.5,2.2-2.5,3.1C4,81.8,3,81.3,2.6,80.9c-1.1-1.3-1.6-2.8-1.3-4.6  c0.1-0.4,0.1-0.8,0-1.2c-1.1-4.8,0.8-8.9,3.2-12.7c2.7-4.3,6-8.1,8.7-12.5c2.5-4.1,6-7.2,9.2-10.6c3.8-4.2,7.2-8.7,10.8-13.1  c0.8-1,1.5-2,2.4-2.9c1.9-2.1,2.1-3.8,0.8-6.3c-0.2-0.4-0.3-1-0.1-1.4c1.8-3.8,4.7-6.8,8.9-7.7c2.5-0.5,5.3-0.1,7.8,0.2  c5.5,0.7,10.3,3.5,15.2,5.9c0.3,0.2,0.7,0.3,0.9,0.6c2.6,3.5,6.7,4.4,10.4,6.1c3.7,1.7,6.3,4.7,7.8,8.5c0.6,1.6,1.2,3.3,1.7,5  c0.9,2.9-1.6,7.3-4.2,8.7c-3.1,1.7-6.8,1.8-9.5,4.4c-0.8,0.8-2.3,1-3.5,1.5c-1.8,0.7-3.5,1.5-5.3,2.2c-0.7,0.3-1.4,0.4-2.1,0.6  c-0.3,0.1-0.8,0.1-1,0.3c-2.1,2.5-5.5,2.7-8,4.5c-2.2,1.6-4.5,2.8-7.2,3.3c-1.9,0.4-3.9,0.8-5.8,1.4c-3.1,1.1-6.1,2.4-9.2,3.5  c-1.5,0.5-3.1,0.8-4.6,1.2c-0.5,0.1-0.9,0.2-1.4,0.4c-1.8,0.6-3.6,1.3-5.4,2c-0.6,0.2-1.2,0.6-1.7,1c-1.2,1-2.3,2.2-4,2.4  c-0.5,0.1-1,0.7-1.2,1.2c-1.3,3.5-2.8,4-6.2,2.2C8.3,74.8,7.8,74.7,7,74.4z M4.3,78.5c0.8-2.1,1.4-3.9,2.1-5.6  c0.6-1.4,1.5-1.6,2.7-0.6c0.7,0.6,1.4,1.1,2.1,1.6c0.8,0.6,1.5,0.6,1.7-0.5c0.3-1.9,1.2-3.3,3.2-3.6c0.2,0,0.4-0.2,0.6-0.4  c2.4-2.7,5.7-4,8.9-5.2c6-2.3,12.2-4,18.2-6.2c6.1-2.2,12.2-4.7,18.2-7.2c4.1-1.7,8.1-3.5,12.2-5.2c2-0.9,2.2-1.3,1.9-3.5  c-0.1-0.6,0.1-1.2,0-1.8c0-0.3-0.1-0.8-0.3-1c-1.9-2-3.6-4.3-5.8-6c-3.1-2.4-6.4-4.6-9.8-6.5c-1.9-1.1-4.2-1.3-6.2-2.1  c-1.1-0.5-2-1.6-3.2-2c-3.4-1.2-6.9-1.9-10.5-1.2c-0.7,0.1-1.7,0-2.1,0.4c-1.5,1.6-2.7,3.4-4,5.1c-2.8,3.4-5.5,6.7-8.4,10  c-3.7,4.3-8.5,7.7-11.1,13.1C12.7,54,10,57.6,7.3,61c-3.8,4.9-4.4,10.4-3.7,16.3C3.6,77.6,4,78,4.3,78.5z M64.4,22.7  c0.1,0.1,0.1,0.1,0.2,0.2c-0.6,0.9-1.2,1.7-1.8,2.7c1,0.6,1.8,1,2.6,1.4c1,0.6,1.8,0.8,2.8-0.1c0.9-0.8,2-1.3,2.9-2  c0,0.1,0.1,0.1,0.1,0.2c-1.1,1.1-2.1,2.3-3.3,3.5c1.5,0.9,2.8,2.2,4.3,2.6c1.4,0.3,3.1-0.3,4.7-0.5c0,0.1,0,0.2,0,0.3  c-1.1,0.5-2.2,1.1-3.6,1.8c3,1.4,3.6,5,7,5.4c-0.3,0.4-0.6,0.7-1.2,1.5c3.4,0.1,5.4-1.7,8.1-3.1c-2.4-3.5-4.5-6.7-6.7-9.8  c-0.6-0.9-1.6-1.7-2-2.7c-1-2.5-3.3-3.4-5.2-4.5c-3.5-2.1-7.5-3.3-11.1-5.3c-4.8-2.6-9.9-3.7-15.2-4.8c-1.2-0.2-2.8-0.1-3.8,0.5  c-1.5,0.9-2.6,2.4-3.8,3.6c-0.3,0.3-0.5,1-0.4,1.1c1.4,1,0.3,2.2,0.3,3.3c0.5,0.4,0.9,0.8,1.4,0.9c1,0.2,2.2,1,3.1-0.6  c0.7-1.2,1.6-2.3,2.4-3.4c0.1,0.1,0.2,0.2,0.3,0.2c-0.7,1.4-1.3,2.8-1.9,4.1c2.5,0.7,5.1,1.4,7.6,2c0.4,0.1,1.1-0.1,1.5-0.4  c0.8-0.6,1.5-1.3,2.2-2c-0.3,0.9-0.9,1.5-1.3,2.2c-0.9,1.4-0.5,2.1,1.1,2.5c1.2,0.3,2.5,0.3,3.6,0.8c1.6,0.8,2.8,0.6,4-0.5  C63.6,23.4,64,23.1,64.4,22.7z"></path><path xmlns="http://www.w3.org/2000/svg" d="M16.9,62.6c-4.7-0.3-6.4-3.7-4-7.9c1.6-2.8,4.1-4.3,7-5.3c2.7-0.9,6.6,0.9,7.9,3.4c0.3,0.7,0.4,1.7,0.2,2.4  C26.2,60.3,22.3,63.1,16.9,62.6z M21.8,50.5c-4.1,0.2-6.4,1.5-7.4,4.5c-0.7,1.9,0.3,4.8,1.8,5.5c2.9,1.3,5.5,0.6,7.9-1.3  c3-2.4,3.3-5.5,0.7-7.5C23.8,51,22.7,50.8,21.8,50.5z"></path><path xmlns="http://www.w3.org/2000/svg" d="M37.4,54.6c-1.7-0.5-3.4-0.8-5-1.4c-1.4-0.6-2.2-3.1-1.5-4.4c1.7-2.8,3.9-5.2,7.1-6.1c1.8-0.5,4.1-0.7,5.8,0  c3.8,1.6,4.9,4.1,1.3,7.9C42.8,53,41.1,54.5,37.4,54.6z M37.8,52.6c3.4-0.2,5.7-1.9,7.3-4.5c1-1.6,0.4-3.4-1.4-3.8  c-2.3-0.5-4.7-0.4-7-0.5c0,0-0.1,0.1-0.1,0.1c-0.9,0.8-2.1,1.3-2.6,2.3c-0.5,0.9-1.4,1.8-0.8,3.4C34.1,52,36.1,52.2,37.8,52.6z"></path><path xmlns="http://www.w3.org/2000/svg" d="M63.7,34c-0.9,0-1.8,0.1-2.6,0c-2.5-0.5-3.9,1.1-5.1,2.8c-1.2,1.7-0.8,4.4,0.5,5.9c0.4,0.5,1,0.9,1.6,1.1  c3.6,1.2,8.5-1.4,9.2-5c0.2-1-0.6-2.2-1.1-3.1c-0.5-0.9-1.4-1.6-2.1-2.4c0.1-0.2,0.3-0.3,0.4-0.5c0.4,0.2,0.9,0.3,1.2,0.6  c0.8,0.7,1.6,1.4,2.4,2.1c1.3,1.3,0.9,2.8,0.5,4.3c-0.6,2-2,3.4-3.8,4.4c-2.7,1.5-8.4,2.6-10.9-0.2c-0.5-0.5-1-1.3-1-2  c0-4.9,5.4-9.9,10-8.7c0.3,0.1,0.6,0.3,0.9,0.4C63.7,33.7,63.7,33.8,63.7,34z"></path><path xmlns="http://www.w3.org/2000/svg" d="M49.4,30.2c0,4.2-4,8.1-8.4,7.9c-0.9,0-1.7,0.1-2.6,0.1c-2.7,0.2-4.3-2.2-3.8-4.8c0.7-3.8,3.4-5.4,6.5-6.8  c0.5-0.2,1.1-0.3,1.4-0.7c1.8-1.9,3.5-0.7,4.9,0.4c1.1,0.8,1.6,2.3,2.4,3.6C49.7,30,49.5,30.1,49.4,30.2z M44.3,26.6  c-3.1,0-5.3,1.8-7.2,3.8c-1.9,2-0.2,5.6,2.4,6.3c3.4,0.9,7.2-0.9,8.3-4.9C48.5,29.3,47.5,26.6,44.3,26.6z"></path><path xmlns="http://www.w3.org/2000/svg" d="M22.5,42.5c1.5-0.9,2.9-1.9,4.4-2.8c0.1,0.1,0.2,0.2,0.2,0.4c-1.4,1-2.8,2-4.2,3.1C22.7,42.9,22.6,42.7,22.5,42.5z"></path><path xmlns="http://www.w3.org/2000/svg" d="M6,69.8c-0.5-2.4-0.2-2.9,1.7-3.2C7.2,67.6,6.6,68.6,6,69.8z"></path></g><g id="SvgjsG3058" featureKey="textGroupContainer" transform="matrix(1,0,0,1,341,0)" fill="#111111"><rect xmlns="http://www.w3.org/2000/svg" y="0" height="1" width="1" opacity="0"></rect><rect xmlns="http://www.w3.org/2000/svg" y="0" x="-235" width="3" height="74"></rect></g><g id="SvgjsG3059" featureKey="nameFeature-0" transform="matrix(1.3059604272229859,0,0,1.3059604272229859,122.43284835915506,3.328476118785087)" fill="#111111"><path d="M1.2 40 l0 -4.48 l0.84 -0.56 l0 -17.92 l-0.84 -0.56 l0 -4.48 l12.8 0 l3.72 3.72 l0 10.76 l-3.72 3.72 l-6.92 0 l0 4.76 l0.84 0.56 l0 4.48 l-6.72 0 z M7.08 25.16 l4.84 0 l0.76 -0.76 l0 -6.6 l-0.76 -0.76 l-4.84 0 l0 8.12 z M20.698 40 l0 -4.48 l0.84 -0.56 l0 -17.92 l-0.84 -0.56 l0 -4.48 l6.72 0 l0 4.48 l-0.84 0.56 l0 17.92 l0.84 0.56 l0 4.48 l-6.72 0 z M35.436 40 l0 -4.48 l0.84 -0.56 l0 -17.92 l-0.84 0 l-0.56 0.84 l-4.48 0 l0 -5.88 l16.8 0 l0 5.88 l-4.48 0 l-0.56 -0.84 l-0.84 0 l0 17.92 l0.84 0.56 l0 4.48 l-6.72 0 z M53.894000000000005 40 l-3.72 -3.72 l0 -20.56 l3.72 -3.72 l8.8 0 l3.72 3.72 l0 5.24 l-5.04 0 l0 -3.16 l-0.76 -0.76 l-4.64 0 l-0.76 0.76 l0 16.4 l0.76 0.76 l4.64 0 l0.76 -0.76 l0 -3.16 l5.04 0 l0 5.24 l-3.72 3.72 l-8.8 0 z M69.39200000000001 40 l0 -4.48 l0.84 -0.56 l0 -17.92 l-0.84 -0.56 l0 -4.48 l14.56 0 l0 5.88 l-4.48 0 l-0.56 -0.84 l-3.64 0 l0 6.44 l6.44 0 l0 5.04 l-6.44 0 l0 6.44 l3.64 0 l0.56 -0.84 l4.48 0 l0 5.88 l-14.56 0 z M97.13000000000001 40 l0 -4.48 l0.72 -0.48 l-1.4 -5.4 l-3.64 0 l0 5.32 l0.84 0.56 l0 4.48 l-6.72 0 l0 -4.48 l0.84 -0.56 l0 -17.92 l-0.84 -0.56 l0 -4.48 l12.8 0 l3.72 3.72 l0 10.2 l-2.16 2.2 l1.72 6.68 l1 0.72 l0 4.48 l-6.88 0 z M92.81 24.6 l4.84 0 l0.76 -0.76 l0 -6.04 l-0.76 -0.76 l-4.84 0 l0 7.56 z M106.628 40 l0 -4.48 l0.84 -0.56 l0 -17.92 l-0.84 -0.56 l0 -4.48 l6.2 0 l5.84 14.96 l0 -9.92 l-0.84 -0.56 l0 -4.48 l6.72 0 l0 4.48 l-0.84 0.56 l0 22.96 l-5.36 0 l-5.84 -14.96 l0 9.92 l0.84 0.56 l0 4.48 l-6.72 0 z M127.526 40 l0 -4.48 l0.84 -0.56 l0 -17.92 l-0.84 -0.56 l0 -4.48 l6.72 0 l0 4.48 l-0.84 0.56 l0 17.92 l0.84 0.56 l0 4.48 l-6.72 0 z M136.424 40 l0 -4.48 l0.84 -0.56 l3.64 -17.92 l-0.84 -0.56 l0 -4.48 l10.64 0 l0 4.48 l-0.84 0.56 l3.64 17.92 l0.84 0.56 l0 4.48 l-4.96 0 l-1.24 -6.16 l-5.52 0 l-1.24 6.16 l-4.96 0 z M143.664 28.8 l3.44 0 l-1.72 -8.56 z"></path></g>
			</g>
		</svg>
	